# xmcd CD database file
#
# Track frame offsets:
#	150
#	10956
#	30091
#	50336
#	64666
#	78489
#	97060
#	112325
#	128848
#	145005
#	160467
#	180159
#	195574
#	208937
#	226644
#	241954
#	254293
#	269903
#	285737
#	299058
#	315450
#
# Disc length: 4408 seconds
#
# Revision: 0
# Processed by: cddbd v1.4PL0 Copyright (c) Steve Scherf et al.
# Submitted via: CDex 1.50beta10
#
DISCID=33113615
DTITLE=Intocable - Coleccion 2003
DYEAR=2003
DGENRE=Country
TTITLE0=Intro mix
TTITLE1=Sueña
TTITLE2=Fuerte no soy
TTITLE3=Y todo para que
TTITLE4=El poder de tus manos
TTITLE5=Mas devil que tu
TTITLE6=El amigo que se fue
TTITLE7=Yo no tengo la culpa
TTITLE8=Un desengaño
TTITLE9=Enseñame a olvidar
TTITLE10=Perdedor
TTITLE11=Amor maldito
TTITLE12=Soñador eterno
TTITLE13=Estas que te pelas
TTITLE14=Costumbre
TTITLE15=Dejame ser yo
TTITLE16=Eres mi droga
TTITLE17=Donde estas
TTITLE18=Huracan
TTITLE19=Con mis alas rotas
TTITLE20=No te vayas
EXTD=YEAR: 2003
EXTT0=
EXTT1=
EXTT2=
EXTT3=
EXTT4=
EXTT5=
EXTT6=
EXTT7=
EXTT8=
EXTT9=
EXTT10=
EXTT11=
EXTT12=
EXTT13=
EXTT14=
EXTT15=
EXTT16=
EXTT17=
EXTT18=
EXTT19=
EXTT20=
PLAYORDER=
